<svg width="16" height="16" viewBox="0 0 16 16" fill="none" xmlns="http://www.w3.org/2000/svg">
<g id="google-color-svgrepo-com" clip-path="url(#clip0_5_472)">
<g id="Icons">
<g id="Color-">
<g id="Google">
<path id="Fill-1" fill-rule="evenodd" clip-rule="evenodd" d="M3.44243 8C3.44243 7.49191 3.52682 7.0048 3.67743 6.54791L1.04116 4.53475C0.527362 5.57795 0.237885 6.75342 0.237885 8C0.237885 9.24551 0.527006 10.4203 1.04009 11.4628L3.67494 9.44568C3.52575 8.99093 3.44243 8.5056 3.44243 8Z" fill="#FBBC05"/>
<path id="Fill-2" fill-rule="evenodd" clip-rule="evenodd" d="M8.07123 3.37777C9.17502 3.37777 10.172 3.76888 10.9553 4.40888L13.2341 2.13333C11.8455 0.924439 10.0652 0.177773 8.07123 0.177773C4.97564 0.177773 2.31515 1.94808 1.04117 4.53475L3.67744 6.54791C4.28488 4.704 6.0164 3.37777 8.07123 3.37777Z" fill="#EB4335"/>
<path id="Fill-3" fill-rule="evenodd" clip-rule="evenodd" d="M8.07123 12.6222C6.0164 12.6222 4.28488 11.296 3.67744 9.45208L1.04117 11.4649C2.31515 14.0519 4.97564 15.8222 8.07123 15.8222C9.98185 15.8222 11.8059 15.1438 13.175 13.8727L10.6726 11.9381C9.96654 12.3829 9.07746 12.6222 8.07123 12.6222Z" fill="#34A853"/>
<path id="Fill-4" fill-rule="evenodd" clip-rule="evenodd" d="M15.5485 8C15.5485 7.53777 15.4773 7.04 15.3705 6.57777H8.07123V9.6H12.2727C12.0627 10.6304 11.4908 11.4226 10.6726 11.9381L13.175 13.8727C14.6131 12.538 15.5485 10.5497 15.5485 8Z" fill="#4285F4"/>
</g>
</g>
</g>
</g>
<defs>
<clipPath id="clip0_5_472">
<rect width="16" height="16" fill="white"/>
</clipPath>
</defs>
</svg>
