<svg width="80" height="71" viewBox="0 0 80 71" fill="none" xmlns="http://www.w3.org/2000/svg">
<path d="M37.0147 0.363853C36.0345 0.811905 34.7744 2.07206 34.2703 3.10819C33.9903 3.64026 33.6822 3.80828 32.6741 3.86428C30.0418 4.0323 20.4086 5.37647 18.3924 5.85253C11.7835 7.44873 8.81516 8.8209 5.76278 11.7053C2.40237 14.8416 0.58214 18.034 0.0780775 21.6465C-0.509996 25.623 2.29035 29.8235 6.23884 30.8596L7.41499 31.1677L7.83504 33.3239C8.61914 37.3284 10.4114 40.8849 13.1277 43.8252C14.4719 45.2814 14.8919 45.9815 15.62 48.0538C18.0003 54.8866 22.7889 61.0474 28.5856 64.8278C32.5901 67.4322 35.7545 68.7203 40.4311 69.7004C43.1754 70.2605 44.0715 70.2885 61.6297 70.2885H80V52.1143C80 32.1758 79.944 31.4197 78.2918 26.4631C76.7236 21.8145 74.3433 17.95 70.6468 14.0575C64.6541 7.81277 56.7571 4.34034 47.824 4.06031L44.3516 3.9483L43.8475 2.82816C42.8674 0.615883 39.3109 -0.672279 37.0147 0.363853ZM41.4672 3.05219C42.1953 3.80828 42.3353 4.14432 42.3353 5.32047C42.3353 6.44061 42.1953 6.83265 41.5232 7.53274C39.423 9.74501 35.9505 8.34484 35.9505 5.29246C35.9505 2.29609 39.339 0.951927 41.4672 3.05219ZM35.1384 8.73689C35.6985 9.35297 36.5666 10.0531 37.0707 10.2771C38.8909 11.0332 41.3272 10.5851 42.7834 9.21295C43.8475 8.23283 44.0715 8.26083 46.8719 9.96904C51.1844 12.6294 53.5647 16.6899 52.5846 19.6862C51.8005 22.0105 49.3642 23.2147 46.1158 22.9066L44.7436 22.7666L45.6117 23.7467C46.9839 25.3149 47.2919 26.4071 47.2639 29.4035C47.2079 38.7846 39.899 46.5136 30.4058 47.2417C25.0852 47.6617 19.9325 45.5614 16.0121 41.3889C12.4276 37.5805 10.4114 31.5317 11.3635 27.4152L11.5875 26.3791L10.5794 26.7991C10.0193 27.0512 8.92718 27.2472 8.11508 27.2472C6.32285 27.3032 5.37073 26.6871 4.44662 24.8949C3.13046 22.3746 4.33461 18.6501 7.58301 15.2057C11.1395 11.4252 15.928 9.68901 26.2893 8.42885C28.7816 8.09281 31.2459 7.81277 31.694 7.75677C33.8783 7.47673 34.0463 7.53274 35.1384 8.73689ZM53.8167 29.0674C55.4409 31.1117 56.8131 34.5561 56.9251 36.8804C57.0091 38.8126 57.4572 39.8207 58.6333 40.9129C59.6415 41.865 60.3416 42.229 61.3777 42.285C63.3379 42.4251 64.038 42.257 65.4382 41.2769L66.9224 40.2688L69.8907 40.3808C72.9991 40.4928 74.5113 40.9969 76.0235 42.3691C77.2837 43.5172 76.4996 46.7376 74.2033 49.902C72.383 52.4223 68.7706 56.0347 68.3786 55.7267C67.9025 55.3347 67.5385 55.7267 66.4743 57.827C64.5981 61.6074 61.6577 64.4358 58.2413 65.78C55.833 66.7321 52.2486 67.0681 49.8123 66.536C43.9035 65.3039 39.1989 60.6833 38.0228 54.9426C37.6867 53.2624 37.6307 49.874 37.9388 49.3979C38.0508 49.2299 38.9469 48.6698 39.927 48.1378C42.3633 46.8496 46.0598 43.3212 47.684 40.6888C49.9523 37.0764 51.4084 31.5877 51.0724 28.0873L50.9044 26.6031L51.7445 27.0232C52.1925 27.2752 53.1167 28.1713 53.8167 29.0674ZM64.178 34.3601C65.0461 35.0041 65.4382 35.9003 65.4382 37.1884C65.4382 38.4206 64.8781 39.3167 63.758 39.9047C60.5376 41.585 57.4572 37.6365 59.8375 34.8921C61.0696 33.52 62.7219 33.2959 64.178 34.3601Z" fill="#E3EBEE"/>
<path d="M36.4543 24.4466C34.354 26.2388 36.0622 30.1873 38.6386 29.5433C40.5708 29.0392 40.9348 25.7348 39.1986 24.3626C38.2745 23.6345 37.3504 23.6625 36.4543 24.4466Z" fill="#E3EBEE"/>
<path d="M18.6723 26.547C17.9162 27.1631 17.6362 29.0673 18.1122 30.2434C18.4763 31.1115 19.6244 31.9236 20.4925 31.9236C20.7446 31.9236 21.3326 31.5596 21.7807 31.1115C22.4528 30.4395 22.5928 30.0474 22.5928 28.9833C22.5928 27.9192 22.4528 27.5271 21.7807 26.855C20.8286 25.9029 19.6244 25.7909 18.6723 26.547Z" fill="#E3EBEE"/>
<path d="M29.6219 35.5362C26.6535 35.9283 26.0934 36.0963 25.6454 36.6564C24.4972 38.0566 24.9733 38.9527 28.1937 41.501C30.602 43.3772 31.2461 43.2652 33.3463 40.6609C35.6426 37.7485 35.9227 36.9924 34.9985 35.9003C34.2705 35.0602 33.5144 35.0042 29.6219 35.5362Z" fill="#E3EBEE"/>
<path d="M44.7999 47.8856C43.1757 48.5577 42.8957 50.938 44.3519 52.0861C45.9201 53.3183 48.3564 52.3662 48.3564 50.5179C48.3564 49.1738 47.9363 48.4737 46.8162 47.9976C45.724 47.5496 45.64 47.5496 44.7999 47.8856Z" fill="#E3EBEE"/>
<path d="M55.5529 55.2229C54.7408 55.8669 54.4607 57.0431 54.9088 58.1072C55.3848 59.1993 56.0849 59.6474 57.3731 59.6474C58.5772 59.6474 59.4733 59.0033 59.6974 57.9952C59.8934 57.0431 59.2773 55.6149 58.4652 55.1668C57.7091 54.7748 56.1129 54.8028 55.5529 55.2229Z" fill="#E3EBEE"/>
<path d="M46.228 57.5469C45.9479 58.219 46.368 60.4032 46.8441 60.7953C47.5161 61.3553 50.1485 60.5432 50.2605 59.7311C50.3445 59.2271 50.0365 58.891 48.8043 58.1069C47.1241 57.0428 46.48 56.9028 46.228 57.5469Z" fill="#E3EBEE"/>
</svg>
