<svg width="32" height="32" viewBox="0 0 32 32" fill="none" xmlns="http://www.w3.org/2000/svg">
<rect width="32" height="32" rx="16" fill="#E3EBEE"/>
<path d="M12.35 7.00003C13.53 6.83003 14.78 8.12003 15.14 9.90003C15.5 11.67 14.85 13.25 13.67 13.43C12.5 13.61 11.24 12.32 10.87 10.54C10.5 8.77003 11.17 7.19003 12.35 7.00003ZM19.5 7.00003C20.69 7.19003 21.35 8.77003 21 10.54C20.62 12.32 19.37 13.61 18.19 13.43C17 13.25 16.35 11.67 16.72 9.90003C17.08 8.12003 18.33 6.83003 19.5 7.00003ZM7 11.6C8.14 11.11 9.69 12 10.5 13.55C11.26 15.13 11 16.79 9.87 17.28C8.74 17.77 7.2 16.89 6.41 15.32C5.62 13.75 5.9 12.08 7 11.6ZM25 11.6C26.1 12.08 26.38 13.75 25.59 15.32C24.8 16.89 23.26 17.77 22.13 17.28C21 16.79 20.74 15.13 21.5 13.55C22.31 12 23.86 11.11 25 11.6ZM23.33 22.38C23.37 23.32 22.65 24.36 21.79 24.75C20 25.57 17.88 23.87 15.89 23.87C13.9 23.87 11.76 25.64 10 24.75C9 24.26 8.31 22.96 8.44 21.88C8.62 20.39 10.41 19.59 11.47 18.5C12.88 17.09 13.88 14.44 15.89 14.44C17.89 14.44 18.95 17.05 20.3 18.5C21.41 19.72 23.26 20.75 23.33 22.38Z" fill="#006184"/>
</svg>
